# xmcd
#
# Track frame offsets:
#	150
#	17175
#	35670
#	62997
#
# Disc length: 1166 seconds
# Revision: 0
# Processed by: cddbd v1.5.2PL0 Copyright (c) Steve Scherf et al.
# Submitted via: dBpowerAMP V12.0
#
DISCID=33048c04
DTITLE=Juliet Roberts - Again - I Want You
DYEAR=1994
DGENRE=R&B
TTITLE0=Again [Edit]
TTITLE1=I Want You [Monster Album Mix]
TTITLE2=I Want You [Roger's Soulsensation Mix Edit]
TTITLE3=Again [D-Corp Club Mix]
EXTD=
EXTT0=
EXTT1=
EXTT2=
EXTT3=
PLAYORDER=
